<svg xmlns="http://www.w3.org/2000/svg" viewBox="0 0 32 32" width="32" height="32">
  <defs>
    <linearGradient id="grad1" x1="0%" y1="0%" x2="100%" y2="100%">
      <stop offset="0%" style="stop-color:#4361ee;stop-opacity:1" />
      <stop offset="100%" style="stop-color:#3a0ca3;stop-opacity:1" />
    </linearGradient>
  </defs>
  <!-- Flask/Lab container -->
  <path d="M12 3 L12 12 L8 20 L8 26 Q8 28 10 28 L22 28 Q24 28 24 26 L24 20 L20 12 L20 3 Z" 
        fill="url(#grad1)" stroke="#2d1e6b" stroke-width="1.5"/>
  <!-- Flask neck -->
  <rect x="12" y="2" width="8" height="3" fill="#4361ee" stroke="#2d1e6b" stroke-width="1"/>
  <!-- Liquid inside -->
  <path d="M10 18 Q16 16 22 18 L22 24 Q22 26 20 26 L12 26 Q10 26 10 24 Z" 
        fill="#7209b7" opacity="0.8"/>
  <!-- Bubbles -->
  <circle cx="14" cy="21" r="1.5" fill="#f72585" opacity="0.8"/>
  <circle cx="18" cy="23" r="1" fill="#f72585" opacity="0.6"/>
  <circle cx="16" cy="24" r="0.8" fill="#f72585" opacity="0.7"/>
  <!-- Code symbols -->
  <text x="16" y="16" font-family="monospace" font-size="6" fill="#ffffff" text-anchor="middle">&lt;/&gt;</text>
</svg>